<svg width="1920" height="1094" viewBox="0 0 1920 1094" fill="none" xmlns="http://www.w3.org/2000/svg">
<path opacity="0.6" d="M288.968 1L-1703 1151H3431L1439.03 1H288.968ZM288.968 1H1439.03M346.471 1L-1236.46 1151M403.975 1L-873.3 1151M461.478 1L-574.044 1151M518.981 1L-316.589 1151M576.484 1L-87.5054 1151M633.987 1L121.946 1151M691.49 1L317.812 1151M748.994 1L504.54 1151M806.497 1L685.62 1151M864 1V1151M921.503 1L1042.38 1151M979.006 1L1223.46 1151M1036.51 1L1410.19 1151M1094.01 1L1606.05 1151M1151.52 1L1815.51 1151M1209.02 1L2044.59 1151M1266.52 1L2302.04 1151M1324.03 1L2601.3 1151M1381.53 1L2964.45 1151M288.963 1.00281H1439.04M288.957 1.00562H1439.04M288.949 1.00842H1439.05M288.943 1.01404H1439.06M288.932 1.01965H1439.07M288.915 1.02808H1439.08M288.895 1.03931H1439.1M288.87 1.05615H1439.13M288.836 1.073H1439.16M288.794 1.09827H1439.21M288.738 1.13196H1439.26M288.668 1.17126H1439.33M288.584 1.2218H1439.42M288.474 1.28357H1439.52M288.342 1.35937H1439.65M288.182 1.45203H1439.82M287.988 1.56433H1440.01M287.752 1.7019H1440.25M287.469 1.86475H1440.53M287.132 2.05847H1440.87M286.733 2.2887H1441.27M286.259 2.56104H1441.74M285.703 2.88391H1442.29M285.054 3.26013H1442.95M284.293 3.69812H1443.7M283.412 4.2063H1444.59M282.392 4.7959H1445.61M281.213 5.47534H1446.78M279.86 6.25586H1448.14M278.31 7.15149H1449.69M276.535 8.17627H1451.46M274.517 9.34143H1453.48M272.223 10.6666H1455.78M269.623 12.1687H1458.38M266.683 13.8645H1461.32M263.37 15.7765H1464.63M259.641 17.9299H1468.35M255.46 20.3445H1472.54M250.774 23.0482H1477.22M245.54 26.0692H1482.46M239.703 29.4412H1488.3M233.206 33.1921H1494.79M225.987 37.3586H1502.01M217.979 41.98H1510.02M209.118 47.0983H1518.88M199.322 52.7528H1528.68M188.515 58.9913H1539.48M176.61 65.8644H1551.39M163.514 73.4253H1564.48M149.133 81.7274H1578.86M133.362 90.8325H1594.64M116.088 100.805H1611.91M97.1974 111.71H1630.8M76.5631 123.623H1651.43M54.056 136.616H1673.94M29.5329 150.775H1698.46M2.85066 166.181H1725.15M-26.1536 182.925H1754.15M-57.64 201.102H1785.64M-91.7881 220.817H1819.79M-128.778 242.171H1856.78M-168.808 265.281H1896.81M-212.081 290.263H1940.08M-258.814 317.242H1986.81M-309.233 346.351H2037.23M-363.58 377.726H2091.58M-422.106 411.516H2150.1M-485.073 447.866H2213.07M-552.762 486.945H2280.76M-625.461 528.916H2353.46M-703.478 573.956H2431.47M-787.13 622.25H2515.13M-876.757 673.994H2604.76M-972.707 729.386H2700.71M-1075.35 788.643H2803.35M-1185.06 851.986H2913.06M-1302.26 919.644H3030.26M-1427.35 991.861H3155.35M-1560.78 1068.89H3288.78" stroke="url(#paint0_linear_582_21441)"/>
<defs>
<linearGradient id="paint0_linear_582_21441" x1="864" y1="189" x2="864" y2="1045" gradientUnits="userSpaceOnUse">
<stop stop-color="white" stop-opacity="0"/>
<stop offset="1" stop-color="white" stop-opacity="0.1"/>
</linearGradient>
</defs>
</svg>
